<svg xmlns:svg="http://www.w3.org/2000/svg" xmlns="http://www.w3.org/2000/svg" version="1.1" width="200" height="183.89653" xml:space="preserve">
<title>Duratex</title>
<defs id="defs6">
<linearGradient x1="0" y1="0" x2="1" y2="0" gradientUnits="userSpaceOnUse" gradientTransform="matrix(255.118,0,0,-255.118,308.268,483.307)" spreadMethod="pad" id="linearGradient12">
<stop style="stop-opacity:1;stop-color:#00abbf" offset="0" id="stop14"/>
<stop style="stop-opacity:1;stop-color:#0a4261" offset="1" id="stop16"/>
</linearGradient>
<linearGradient x1="0" y1="0" x2="1" y2="0" gradientUnits="userSpaceOnUse" gradientTransform="matrix(255.118,0,0,-255.118,308.268,483.307)" spreadMethod="pad" id="linearGradient18">
<stop style="stop-opacity:1;stop-color:#00abbf" offset="0" id="stop20"/>
<stop style="stop-opacity:1;stop-color:#0a4261" offset="1" id="stop22"/>
</linearGradient>
<clipPath clipPathUnits="userSpaceOnUse" id="clipPath284">
<path d="m 0,0 595.275,0 0,841.89 L 0,841.89 0,0 z" id="path286"/>
</clipPath>
<linearGradient x1="0" y1="0" x2="1" y2="0" gradientUnits="userSpaceOnUse" gradientTransform="matrix(0.0724871,-41.532616,-41.532616,-0.0724871,119.2728,559.45874)" spreadMethod="pad" id="linearGradient332">
<stop style="stop-opacity:1;stop-color:#00abbf" offset="0" id="stop334"/>
<stop style="stop-opacity:1;stop-color:#0a4261" offset="1" id="stop336"/>
</linearGradient>
<linearGradient x1="0" y1="0" x2="1" y2="0" gradientUnits="userSpaceOnUse" gradientTransform="matrix(1.9699012,-24.483578,-24.483578,-1.9699012,94.247955,552.98145)" spreadMethod="pad" id="linearGradient352">
<stop style="stop-opacity:1;stop-color:#00abbf" offset="0" id="stop354"/>
<stop style="stop-opacity:1;stop-color:#0a4261" offset="1" id="stop356"/>
</linearGradient>
<clipPath clipPathUnits="userSpaceOnUse" id="clipPath364">
<path d="M 153.504,841.89 C 300.257,780.658 446.984,686.678 595.275,584.915 l 0,0 0,256.975 -441.771,0 z" id="path366"/>
</clipPath>
<clipPath clipPathUnits="userSpaceOnUse" id="clipPath376">
<path d="M 0,841.89 0,649.261 c 95.828,-31.797 193.236,-50.468 292.528,-50.468 l 0,0 c 75.706,0 152.51,10.849 230.578,35.004 l 0,0 C 399.29,716.36 276.413,790.607 153.504,841.89 l 0,0 -153.504,0 z" id="path378"/>
</clipPath>
<clipPath clipPathUnits="userSpaceOnUse" id="clipPath388">
<path d="m 496.391,841.89 c 33.423,-23.642 66.389,-43.697 98.884,-59.497 l 0,0 0,59.497 -98.884,0 z m 26.715,-208.093 c 19.489,-12.996 39.01,-26.203 58.547,-39.553 l 0,0 c 0.068,-0.047 0.134,-0.091 0.201,-0.138 l 0,0 c 0.272,-0.185 0.563,-0.384 0.834,-0.57 l 0,0 c 0.087,-0.059 0.171,-0.117 0.258,-0.176 l 0,0 c 0.263,-0.179 0.532,-0.364 0.795,-0.543 l 0,0 c 0.173,-0.119 0.35,-0.24 0.523,-0.358 l 0,0 c 0.245,-0.167 0.475,-0.325 0.72,-0.492 l 0,0 c 0.145,-0.1 0.292,-0.2 0.437,-0.3 l 0,0 c 0.163,-0.111 0.336,-0.229 0.499,-0.341 l 0,0 c 0.186,-0.127 0.374,-0.255 0.56,-0.383 l 0,0 c 0.145,-0.099 0.278,-0.19 0.422,-0.289 l 0,0 c 0.311,-0.212 0.623,-0.426 0.933,-0.639 l 0,0 c 0.181,-0.124 0.359,-0.245 0.54,-0.369 l 0,0 c 0.17,-0.117 0.341,-0.234 0.511,-0.35 l 0,0 c 0.154,-0.106 0.31,-0.213 0.464,-0.318 l 0,0 c 0.189,-0.13 0.382,-0.262 0.572,-0.392 l 0,0 c 0.117,-0.08 0.245,-0.167 0.362,-0.248 l 0,0 c 0.668,-0.457 1.335,-0.915 2.002,-1.372 l 0,0 c 0.172,-0.118 0.335,-0.23 0.507,-0.348 l 0,0 c 0.169,-0.116 0.338,-0.231 0.507,-0.347 l 0,0 c 0.199,-0.137 0.378,-0.26 0.577,-0.396 l 0,0 c 0.132,-0.091 0.266,-0.183 0.399,-0.274 l 0,0 c 0.334,-0.229 0.664,-0.456 0.999,-0.686 l 0,0 0,74.924 c -24.182,-9.981 -48.227,-18.635 -72.169,-26.042" id="path390"/>
</clipPath>
<clipPath clipPathUnits="userSpaceOnUse" id="clipPath400">
<path d="m 391.123,841.89 0,-123.701 c 26.522,-16.089 53.082,-32.811 79.667,-50.007 l 0,0 90.986,0 0,131.885 c -21.595,12.261 -43.39,26.265 -65.385,41.823 l 0,0 -105.268,0 z" id="path402"/>
</clipPath>
<clipPath clipPathUnits="userSpaceOnUse" id="clipPath412">
<path d="m 289.114,841.89 0,-65.153 c 5.542,-2.982 11.086,-6.001 16.629,-9.052 l 0,0 c 0.019,-0.01 0.024,-0.013 0.042,-0.023 l 0,0 c 0.263,-0.145 0.526,-0.291 0.789,-0.435 l 0,0 c 0.036,-0.02 0.053,-0.029 0.089,-0.049 l 0,0 c 0.27,-0.149 0.535,-0.295 0.806,-0.444 l 0,0 0.018,-0.01 c 0.841,-0.464 1.694,-0.936 2.535,-1.402 l 0,0 c 0.045,-0.024 0.077,-0.042 0.123,-0.067 l 0,0 c 0.225,-0.125 0.469,-0.26 0.694,-0.385 l 0,0 c 0.054,-0.03 0.124,-0.068 0.177,-0.099 l 0,0 c 0.217,-0.12 0.427,-0.236 0.645,-0.357 l 0,0 c 0.063,-0.035 0.122,-0.067 0.184,-0.103 l 0,0 c 0.263,-0.145 0.522,-0.289 0.786,-0.435 l 0,0 c 0.009,-0.006 0.01,-0.006 0.019,-0.011 l 0,0 c 0.285,-0.158 0.567,-0.315 0.852,-0.474 l 0,0 c 0.009,-0.005 0.027,-0.015 0.036,-0.02 l 0,0 c 0.255,-0.141 0.511,-0.284 0.766,-0.426 l 0,0 c 0.062,-0.035 0.132,-0.074 0.195,-0.109 l 0,0 c 0.21,-0.117 0.415,-0.231 0.625,-0.348 l 0,0 c 0.072,-0.04 0.153,-0.085 0.225,-0.125 l 0,0 c 0.195,-0.109 0.403,-0.225 0.599,-0.334 l 0,0 c 0.072,-0.04 0.154,-0.086 0.226,-0.127 l 0,0 c 0.203,-0.113 0.404,-0.225 0.607,-0.338 l 0,0 c 0.071,-0.04 0.144,-0.081 0.216,-0.121 l 0,0 c 0.263,-0.146 0.527,-0.294 0.789,-0.442 l 0,0 c 0.081,-0.045 0.172,-0.096 0.253,-0.141 l 0,0 c 0.173,-0.096 0.343,-0.192 0.516,-0.288 l 0,0 c 0.134,-0.076 0.275,-0.155 0.41,-0.23 l 0,0 c 0.128,-0.071 0.259,-0.144 0.386,-0.216 l 0,0 c 0.135,-0.076 0.267,-0.15 0.402,-0.225 l 0,0 c 0.135,-0.076 0.264,-0.148 0.399,-0.224 l 0,0 c 0.126,-0.071 0.261,-0.147 0.387,-0.217 l 0,0 c 0.143,-0.08 0.295,-0.166 0.438,-0.246 l 0,0 c 0.117,-0.066 0.248,-0.14 0.365,-0.205 l 0,0 c 0.128,-0.072 0.256,-0.144 0.384,-0.216 l 0,0 c 0.278,-0.156 0.532,-0.3 0.811,-0.457 l 0,0 c 0.105,-0.058 0.219,-0.123 0.324,-0.182 l 0,0 c 0.144,-0.08 0.288,-0.161 0.431,-0.242 l 0,0 c 0.12,-0.068 0.241,-0.135 0.361,-0.204 l 0,0 c 0.153,-0.085 0.298,-0.167 0.45,-0.254 l 0,0 c 0.105,-0.058 0.212,-0.119 0.317,-0.178 l 0,0 c 0.162,-0.092 0.324,-0.183 0.486,-0.274 l 0,0 c 0.075,-0.043 0.162,-0.091 0.237,-0.134 l 0,0 c 0.87,-0.491 1.717,-0.97 2.587,-1.463 l 0,0 c 0.061,-0.033 0.131,-0.074 0.191,-0.108 l 0,0 c 0.188,-0.106 0.389,-0.219 0.577,-0.327 l 0,0 c 0.061,-0.034 0.11,-0.062 0.17,-0.096 l 0,0 c 0.198,-0.112 0.394,-0.223 0.591,-0.335 l 0,0 c 0.053,-0.03 0.101,-0.057 0.154,-0.087 l 0,0 c 9.76,-5.539 19.523,-11.177 29.289,-16.909 l 0,0 32.901,0 0,104.347 -102.489,0 z" id="path414"/>
</clipPath>
<clipPath clipPathUnits="userSpaceOnUse" id="clipPath424">
<path d="m 221.189,841.89 0,-30.471 c 22.794,-10.981 45.596,-22.66 68.406,-34.941 l 0,0 0,65.412 -68.406,0 z" id="path426"/>
</clipPath>
<clipPath clipPathUnits="userSpaceOnUse" id="clipPath436">
<path d="m 153.504,841.89 c 0.263,-0.11 0.529,-0.222 0.792,-0.332 l 0,0 c 0.098,-0.04 0.173,-0.071 0.272,-0.113 l 0,0 c 0.18,-0.075 0.353,-0.148 0.534,-0.223 l 0,0 c 0.107,-0.045 0.193,-0.081 0.3,-0.126 l 0,0 c 0.173,-0.073 0.344,-0.144 0.517,-0.217 l 0,0 c 0.098,-0.041 0.189,-0.079 0.288,-0.121 l 0,0 c 0.18,-0.075 0.352,-0.148 0.533,-0.224 l 0,0 c 0.098,-0.041 0.185,-0.077 0.283,-0.119 l 0,0 c 0.24,-0.101 0.465,-0.196 0.705,-0.297 l 0,0 c 0.027,-0.011 0.056,-0.024 0.083,-0.035 l 0,0 c 0.27,-0.114 0.535,-0.226 0.805,-0.34 l 0,0 c 0.071,-0.029 0.134,-0.056 0.205,-0.086 l 0,0 c 0.203,-0.086 0.409,-0.173 0.611,-0.259 l 0,0 c 0.08,-0.034 0.17,-0.072 0.25,-0.106 l 0,0 c 0.172,-0.073 0.366,-0.154 0.538,-0.227 l 0,0 c 0.099,-0.043 0.201,-0.085 0.299,-0.127 l 0,0 c 0.18,-0.077 0.362,-0.154 0.542,-0.231 l 0,0 c 0.09,-0.038 0.168,-0.071 0.257,-0.109 l 0,0 c 0.247,-0.105 0.493,-0.209 0.741,-0.315 l 0,0 c 0.017,-0.007 0.032,-0.013 0.05,-0.021 l 0,0 c 0.277,-0.118 0.543,-0.231 0.821,-0.35 l 0,0 c 0.054,-0.023 0.115,-0.049 0.168,-0.072 l 0,0 c 0.211,-0.089 0.421,-0.179 0.631,-0.269 l 0,0 c 0.081,-0.035 0.186,-0.081 0.267,-0.115 l 0,0 c 0.187,-0.08 0.36,-0.154 0.547,-0.234 l 0,0 c 0.09,-0.038 0.172,-0.074 0.262,-0.112 l 0,0 c 0.196,-0.084 0.377,-0.161 0.572,-0.245 l 0,0 c 0.081,-0.035 0.166,-0.072 0.246,-0.106 l 0,0 c 0.225,-0.097 0.454,-0.195 0.679,-0.292 l 0,0 c 0.045,-0.019 0.073,-0.031 0.118,-0.05 l 0,0 c 0.27,-0.116 0.538,-0.232 0.808,-0.349 l 0,0 c 0.053,-0.022 0.126,-0.054 0.18,-0.077 l 0,0 c 0.21,-0.091 0.434,-0.187 0.644,-0.278 l 0,0 c 0.081,-0.034 0.138,-0.059 0.219,-0.095 l 0,0 c 0.195,-0.084 0.386,-0.167 0.582,-0.251 l 0,0 c 0.09,-0.038 0.166,-0.072 0.255,-0.11 l 0,0 c 0.203,-0.088 0.397,-0.172 0.6,-0.26 l 0,0 c 0.071,-0.031 0.132,-0.058 0.204,-0.089 l 0,0 c 0.247,-0.107 0.491,-0.213 0.739,-0.32 l 0,0 c 0.018,-0.008 0.043,-0.019 0.061,-0.027 l 0,0 c 0.548,-0.238 1.108,-0.482 1.656,-0.721 l 0,0 c 0.062,-0.027 0.116,-0.05 0.179,-0.078 l 0,0 c 0.21,-0.091 0.423,-0.185 0.633,-0.277 l 0,0 c 0.072,-0.03 0.141,-0.061 0.212,-0.092 l 0,0 c 0.203,-0.088 0.413,-0.18 0.616,-0.269 l 0,0 c 0.071,-0.031 0.143,-0.062 0.215,-0.094 l 0,0 c 0.239,-0.105 0.491,-0.215 0.731,-0.32 l 0,0 c 0.018,-0.008 0.04,-0.018 0.058,-0.026 l 0,0 c 0.563,-0.247 1.127,-0.494 1.689,-0.743 l 0,0 c 0.028,-0.012 0.047,-0.02 0.074,-0.031 l 0,0 c 0.24,-0.107 0.478,-0.211 0.718,-0.317 l 0,0 c 0.063,-0.028 0.135,-0.06 0.198,-0.088 l 0,0 c 0.209,-0.092 0.431,-0.189 0.64,-0.282 l 0,0 c 0.063,-0.028 0.118,-0.052 0.181,-0.08 l 0,0 c 0.24,-0.106 0.478,-0.212 0.718,-0.318 l 0,0 c 0.036,-0.016 0.055,-0.024 0.091,-0.04 l 0,0 c 0.556,-0.246 1.104,-0.489 1.658,-0.736 l 0,0 c 0.054,-0.024 0.105,-0.046 0.159,-0.07 l 0,0 c 0.216,-0.097 0.445,-0.199 0.663,-0.295 l 0,0 c 0.063,-0.028 0.12,-0.054 0.183,-0.082 l 0,0 c 0.218,-0.097 0.436,-0.194 0.654,-0.291 l 0,0 c 0.062,-0.028 0.116,-0.052 0.179,-0.08 l 0,0 c 0.24,-0.107 0.465,-0.208 0.705,-0.315 l 0,0 c 0.036,-0.016 0.068,-0.03 0.104,-0.047 l 0,0 c 0.563,-0.251 1.125,-0.503 1.688,-0.755 l 0,0 c 0.009,-0.004 0.019,-0.009 0.027,-0.012 l 0,0 c 0.256,-0.115 0.529,-0.238 0.784,-0.352 l 0,0 c 0.044,-0.021 0.091,-0.042 0.135,-0.061 l 0,0 c 0.233,-0.105 0.481,-0.216 0.713,-0.321 l 0,0 c 0.036,-0.016 0.084,-0.038 0.12,-0.054 l 0,0 c 0.255,-0.115 0.507,-0.228 0.763,-0.344 l 0,0 c 0.027,-0.011 0.033,-0.015 0.06,-0.027 l 0,0 c 0.847,-0.382 1.703,-0.769 2.551,-1.153 l 0,0 c 0.009,-0.004 0.024,-0.011 0.033,-0.016 l 0,0 c 0.263,-0.118 0.533,-0.241 0.796,-0.361 l 0,0 c 0.027,-0.012 0.056,-0.025 0.083,-0.037 l 0,0 c 0.27,-0.123 0.548,-0.25 0.818,-0.372 l 0,0 0.003,-0.002 c 0.855,-0.389 1.7,-0.775 2.555,-1.166 l 0,0 c 0.028,-0.012 0.04,-0.018 0.067,-0.031 l 0,0 c 0.256,-0.116 0.523,-0.239 0.779,-0.355 l 0,0 c 0.018,-0.009 0.058,-0.027 0.076,-0.036 l 0,0 c 8.664,-3.971 17.326,-8.048 25.992,-12.226 l 0,0 0,30.702 -68.165,0 z" id="path438"/>
</clipPath>
<clipPath clipPathUnits="userSpaceOnUse" id="clipPath448">
<path d="m 561.297,646.648 c 11.297,4.11 22.624,8.504 33.978,13.191 l 0,0 0,122.554 c -11.269,5.48 -22.596,11.471 -33.978,17.947 l 0,0 0,-153.692 z" id="path450"/>
</clipPath>
<clipPath clipPathUnits="userSpaceOnUse" id="clipPath460">
<path d="m 357.884,738.022 c 11.233,-6.587 22.477,-13.301 33.719,-20.124 l 0,0 0,20.124 -33.719,0 z" id="path462"/>
</clipPath>
<clipPath
clipPathUnits="userSpaceOnUse" id="clipPath472">
<path d="m 470.047,668.662 c 17.668,-11.422 35.356,-23.06 53.059,-34.865 l 0,0 c 12.858,3.978 25.748,8.316 38.67,13.026 l 0,0 0,21.839 -91.729,0 z" id="path474"/>
</clipPath>
</defs>
<g id="g10" transform="matrix(1.25,0,0,-1.25,-53.928876,796.25842)">
<g id="g280" transform="matrix(1.7716322,0,0,1.7716322,-33.290604,-378.0145)">
<g id="g282" clip-path="url(#clipPath284)">
<g id="g288" transform="translate(65.8475,489.8899)">
<path d="m 0,0 c -4.599,0 -5.75,1.961 -5.75,5.41 l 0,8.312 c 0,0.21 0.131,0.288 0.34,0.34 l 1.413,0.34 0.076,0 c 0.184,0 0.236,-0.186 0.236,-0.34 l 0,-8.861 c 0,-2.457 0.863,-3.555 3.685,-3.555 3.399,0 3.661,1.672 3.661,3.634 l 0,8.442 c 0,0.21 0.156,0.288 0.339,0.34 l 1.412,0.34 0.079,0 c 0.181,0 0.259,-0.186 0.259,-0.34 l 0,-8.6 C 5.75,2.875 5.385,0 0,0" style="fill:#5a5758;fill-opacity:1;fill-rule:nonzero;stroke:none" id="path290"/>
</g>
<g id="g292" transform="translate(105.757,490.6462)">
<path d="m 0,0 c 0,-0.104 -0.104,-0.234 -0.209,-0.26 -0.576,-0.183 -1.699,-0.496 -3.19,-0.496 -2.588,0 -3.816,1.122 -3.816,3.634 l 0,14.374 c 0,0.21 0.131,0.287 0.314,0.312 l 1.412,0.367 0.077,0 c 0.184,0 0.262,-0.182 0.262,-0.338 l 0,-4.287 4.392,0 c 0.235,0 0.392,-0.156 0.392,-0.392 l 0,-0.89 c 0,-0.236 -0.157,-0.392 -0.392,-0.392 l -4.392,0 0,-8.966 c 0,-1.437 0.785,-1.75 2.142,-1.75 0.811,0 1.858,0.209 2.407,0.34 l 0.078,0 c 0.131,0 0.235,-0.079 0.286,-0.236 L 0,0.053 0,0 z" style="fill:#5a5758;fill-opacity:1;fill-rule:nonzero;stroke:none" id="path294"/>
</g>
<g id="g296" transform="translate(124.0209,503.6118)">
<path d="m 0,0 c -0.105,0.156 -0.237,0.34 -0.471,0.34 l -1.663,0 C -2.266,0.34 -2.37,0.184 -2.37,0.026 l 0.079,-0.183 4.615,-6.36 -4.615,-6.342 -0.079,-0.21 c 0,-0.181 0.104,-0.312 0.287,-0.312 l 1.629,0 c 0.131,0 0.288,0.103 0.366,0.207 l 3.62,4.991 3.62,-4.991 c 0.078,-0.104 0.236,-0.207 0.367,-0.207 l 1.629,0 c 0.183,0 0.286,0.131 0.286,0.312 L 9.356,-12.859 0,0 z" style="fill:#5a5758;fill-opacity:1;fill-rule:nonzero;stroke:none" id="path298"/>
</g>
<g id="g300" transform="translate(129.3873,498.3481)">
<path d="M 0,0 C 0.17,-0.168 0.326,0.063 0.326,0.063 L 3.99,5.107 4.068,5.29 c 0,0.158 -0.104,0.314 -0.235,0.314 l -1.663,0 C 1.935,5.604 1.805,5.42 1.7,5.264 L -0.885,1.72 c 0,0 -0.212,-0.227 -0.04,-0.453 C -0.873,1.205 -0.269,0.371 0,0" style="fill:#5a5758;fill-opacity:1;fill-rule:nonzero;stroke:none" id="path302"/>
</g>
<g id="g304" transform="translate(82.7061,503.4399)">
<path d="M 0,0 C -0.012,0.209 -0.199,0.277 -0.278,0.298 -1.131,0.564 -4.039,1.027 -6.073,0.727 L -6.078,0.725 -6.219,0.708 c -0.544,-0.093 -0.96,-0.319 -1.135,-0.492 -0.29,-0.289 -0.373,-0.713 -0.373,-1.43 l 0,-11.605 c 0,-0.235 0.13,-0.39 0.365,-0.39 l 0.026,0 1.071,0 0.238,0 c 0.234,0 0.364,0.155 0.364,0.39 l 0,11.769 c 0.09,0.005 0.165,0.008 0.26,0.014 2.01,0.114 3.749,-0.177 4.833,-0.376 l 0.159,-0.016 c 0.104,0.004 0.204,0.064 0.248,0.224 L 0.002,-0.052 0,0 z" style="fill:#5a5758;fill-opacity:1;fill-rule:nonzero;stroke:none" id="path306"/>
</g>
<g id="g308" transform="translate(93.7368,503.6111)">
<path d="M 0,0 C -0.757,0.419 -2.062,0.653 -3.816,0.68 -5.115,0.707 -7.528,0.469 -8.364,0.155 -8.442,0.128 -8.625,0.049 -8.625,-0.158 l 0,-0.053 0.235,-1.177 c 0.053,-0.157 0.155,-0.208 0.261,-0.208 l 0.157,0.024 c 1.073,0.263 2.315,0.505 3.922,0.475 1.15,0 1.88,-0.105 2.378,-0.315 0.915,-0.339 0.941,-1.019 0.941,-1.854 l 0,-8.311 c -1.099,-0.366 -2.28,-0.504 -3.432,-0.504 -1.724,0 -3.974,0.164 -3.974,2.777 0,2.065 1.511,2.44 2.624,2.44 l 1.696,0 1.557,0 c 0.16,0 0.268,0.105 0.268,0.264 l 0,1.147 c 0,0.16 -0.108,0.267 -0.268,0.267 l -3.412,0 c -2.038,0 -4.471,-0.783 -4.471,-4.174 0,-4.233 3.689,-4.361 5.935,-4.361 1.385,0 2.641,0.209 3.399,0.366 1.803,0.444 2.169,0.863 2.169,2.692 l 0,7.502 C 1.36,-1.933 1.333,-0.706 0,0" style="fill:#5a5758;fill-opacity:1;fill-rule:nonzero;stroke:none" id="path310"/>
</g>
<g id="g312" transform="translate(118.7643,501.9653)">
<path d="m 0,0 c -0.864,1.49 -2.408,2.326 -5.153,2.326 -5.174,0 -6.063,-2.797 -6.063,-7.214 0,-4.809 1.516,-7.187 6.64,-7.187 1.725,0 3.451,0.34 4.495,0.756 0.155,0.079 0.314,0.199 0.261,0.394 -0.054,0.195 -0.287,0.993 -0.287,0.993 -0.082,0.267 -0.302,0.222 -0.349,0.207 l -0.213,-0.064 c -0.739,-0.207 -1.336,-0.382 -2.136,-0.493 -0.442,-0.062 -1.008,-0.121 -1.562,-0.121 -1.829,0 -3.111,0.288 -3.867,1.254 -0.374,0.461 -0.613,0.982 -0.729,1.714 -0.023,0.149 -0.083,1.004 -0.091,1.245 -0.047,1.225 -0.011,1.975 -0.007,2.084 0.027,0.848 0.075,1.725 0.302,2.563 0.444,1.673 1.463,2.223 3.556,2.223 2.116,0 3.134,-0.55 3.606,-2.223 0.234,-0.967 0.286,-1.717 0.314,-2.71 l -6.234,0 c -0.161,0 -0.266,-0.108 -0.266,-0.267 l 0,-1.179 c 0,-0.161 0.105,-0.266 0.266,-0.266 l 7.957,0 c 0.185,0 0.396,0.2 0.396,0.434 l 0,1.146 C 0.836,-2.581 0.68,-1.177 0,0" style="fill:#5a5758;fill-opacity:1;fill-rule:nonzero;stroke:none" id="path314"/>
</g>
<g id="g316" transform="translate(50.6541,508.6135)">
<path d="m 0,0 c -0.474,0.072 -2.362,0.16 -4.146,0.16 -1.095,0 -2.946,-0.068 -2.946,-0.068 -0.235,0 -0.419,-0.184 -0.419,-0.419 l 0,-8.956 0,-8.956 c 0,-0.233 0.184,-0.417 0.419,-0.417 0,0 1.851,-0.068 2.946,-0.068 1.784,0 3.672,0.086 4.146,0.161 4.167,0.388 6.523,2.122 6.526,9.28 C 6.523,-2.124 4.167,-0.388 0,0 m -1.334,-16.701 c -0.259,-0.014 -0.83,-0.035 -1.445,-0.046 -0.492,-0.008 -0.933,-0.005 -1.249,-0.005 -0.413,0 -0.864,0.009 -1.261,0.029 l 0,7.44 0,7.44 c 0.397,0.022 0.848,0.03 1.261,0.031 0.316,0 0.757,0.002 1.249,-0.005 0.615,-0.011 1.186,-0.032 1.445,-0.046 3.685,-0.188 5.57,-1.282 5.584,-7.42 -0.014,-6.135 -1.899,-7.231 -5.584,-7.418" style="fill:#5a5758;fill-opacity:1;fill-rule:nonzero;stroke:none" id="path318"/>
</g>
</g>
</g>
<g id="g320" transform="matrix(1.7716322,0,0,1.7716322,-33.290604,-378.0145)">
<g id="g322">
<g id="g328">
<g id="g330">
<path d="m 86.54,572.927 0.005,-0.082 c 17.758,-26.914 2.09,-51.605 -10.66,-45.734 l 0,0 c 4.129,-7.99 11.357,-10.232 17.321,-8.54 l 0,0 c 14.205,4.029 24.319,30.334 -6.594,54.344 l 0,0 -0.022,0.015 -0.05,-0.003 z" style="fill:url(#linearGradient332);stroke:none" id="path338"/>
</g>
</g>
</g>
</g>
<g id="g340" transform="matrix(1.7716322,0,0,1.7716322,-33.290604,-378.0145)">
<g id="g342">
<g id="g348">
<g id="g350">
<path d="m 70.995,540.92 c -3.778,-5.854 0.623,-11.265 4.89,-13.809 l 0,0 c -4.105,10.905 17.498,14.676 13.308,27.182 l 0,0 -0.08,0.011 C 87.767,549.621 74.658,546.596 70.995,540.92" style="fill:url(#linearGradient352);stroke:none" id="path358"/>
</g>
</g>
</g>
</g>
<g id="g360" transform="matrix(1.7716322,0,0,1.7716322,-33.290604,-378.0145)">
<g id="g362" clip-path="url(#clipPath364)">
<g id="g368">
<g id="g370"/>
</g>
</g>
</g>
<g id="g372" transform="matrix(1.7716322,0,0,1.7716322,-33.290604,-378.0145)">
<g id="g374" clip-path="url(#clipPath376)">
<g id="g380" transform="matrix(524.90105,0,0,245.08612,-1.1722544,597.48971)"/>
</g>
</g>
<g id="g384" transform="matrix(1.7716322,0,0,1.7716322,-33.290604,-378.0145)">
<g id="g386" clip-path="url(#clipPath388)">
<g id="g392" transform="matrix(-99.36811,-2.1e-6,-5.3e-6,257.52375,595.61964,584.66072)"/>
</g>
</g>
<g id="g396" transform="matrix(1.7716322,0,0,1.7716322,-33.290604,-378.0145)">
<g id="g398" clip-path="url(#clipPath400)">
<g id="g404" transform="matrix(-170.65393,-3.5e-6,-3.6e-6,174.24254,561.77688,668.18193)"/>
</g>
</g>
<g id="g408" transform="matrix(1.7716322,0,0,1.7716322,-33.290604,-378.0145)">
<g id="g410" clip-path="url(#clipPath412)">
<g id="g416" transform="matrix(-102.48836,-2.1e-6,-2.2e-6,104.88153,391.60298,737.54294)"/>
</g>
</g>
<g id="g420" transform="matrix(1.7716322,0,0,1.7716322,-33.290604,-378.0145)">
<g id="g422" clip-path="url(#clipPath424)">
<g id="g428" transform="matrix(-68.405583,-1.4e-6,-1.5e-6,70.081021,289.59466,772.34345)"/>
</g>
</g>
<g id="g432" transform="matrix(1.7716322,0,0,1.7716322,-33.290604,-378.0145)">
<g id="g434" clip-path="url(#clipPath436)">
<g id="g440" transform="matrix(-68.645603,-1.4e-6,-7e-7,35.280514,221.66911,807.14395)"/>
</g>
</g>
<g id="g444" transform="matrix(1.7716322,0,0,1.7716322,-33.290604,-378.0145)">
<g id="g446" clip-path="url(#clipPath448)">
<g id="g452" transform="matrix(-34.562821,-7e-7,-3.6e-6,174.24254,595.85966,633.38143)"/>
</g>
</g>
<g id="g456" transform="matrix(1.7716322,0,0,1.7716322,-33.290604,-378.0145)">
<g id="g458" clip-path="url(#clipPath460)">
<g id="g464" transform="matrix(-34.322801,-7e-7,-7e-7,35.040511,391.60299,702.98244)"/>
</g>
</g>
<g
id="g468" transform="matrix(1.7716322,0,0,1.7716322,-33.290604,-378.0145)">
<g id="g470" clip-path="url(#clipPath472)">
<g id="g476" transform="matrix(-102.48836,-2.1e-6,-7e-7,35.280514,561.77688,633.38143)"/>
</g>
</g>
</g>
</svg>