<?xml version="1.0" encoding="utf-8"?>
<!-- Generator: Adobe Illustrator 25.0.0, SVG Export Plug-In . SVG Version: 6.00 Build 0)  -->
<svg version="1.1" id="Camada_1" xmlns:serif="http://www.serif.com/"
	 xmlns="http://www.w3.org/2000/svg" xmlns:xlink="http://www.w3.org/1999/xlink" x="0px" y="0px" viewBox="0 0 1920 1080"
	 style="enable-background:new 0 0 1920 1080;" xml:space="preserve">
<style type="text/css">
	.st0{fill:#FF3131;}
</style>
<g transform="matrix(1,0,0,1,-42.6551,-110.035)">
	<path class="st0" d="M663.02,110.04h154.82v1079.23H663.02V110.04z M1326.71,110.04v130.22h120.03v949.01h150V240.25h118.08V110.04
		H1326.71z M289.5,1189.26H439.5V699.65h127.76V571.22H439.5V240.25h166.66V110.04H289.5V1189.26z M1346.59,1118.57
		c0.03,23.65,0.05,47.21,0.04,70.7h-140.31c-0.12-40.83-0.22-81.86-0.28-123.09c-0.12-41.17-0.31-82.41-0.75-123.51
		c-0.89-82.12-2.77-163.91-7.06-243.02H1033.2v489.61H898.47V110.04h316.57c19.17,37.13,35.43,75.69,48.63,115.33
		c13.66,40.97,24.96,82.69,33.85,124.95c9.2,42.96,16.51,87.26,22.39,132.34c5.88,45.06,10.35,91.17,13.8,137.68
		c3.45,46.49,5.91,93.79,7.7,141.14c1.79,47.3,2.93,95.27,3.68,142.88c0.75,47.49,1.12,95.74,1.32,143.06
		C1346.51,1071.19,1346.57,1094.91,1346.59,1118.57z M1188.67,571.22c-12.06-123.4-32.74-237.61-68.55-330.96h-86.92v330.96H1188.67
		z"/>
</g>
</svg>
