<?xml version="1.0" encoding="utf-8"?>
<!-- Generator: Adobe Illustrator 25.0.0, SVG Export Plug-In . SVG Version: 6.00 Build 0)  -->
<svg version="1.1" id="Layer_1" xmlns="http://www.w3.org/2000/svg" xmlns:xlink="http://www.w3.org/1999/xlink" x="0px" y="0px"
	 viewBox="0 0 696 538" style="enable-background:new 0 0 696 538;" xml:space="preserve">
<style type="text/css">
	.st0{fill-rule:evenodd;clip-rule:evenodd;fill:#FF0001;}
	.st1{fill-rule:evenodd;clip-rule:evenodd;}
</style>
<path class="st0" d="M367.84,363.06c58.35-8.7,104.77-54.78,113.81-113.13l28.56-0.11l10.82-42.73h-39.61
	c-10.6-64.26-66.39-113.24-133.45-113.24c-67.06,0-122.51,48.64-133.33,112.68h-39.72l10.15,43.96h29.12
	c9.04,58.35,55.45,103.98,113.92,112.57c0,0-2.01-30.68-7.48-37.15c-5.36-6.47-16.62-13.72-23.65-14.28c0,0-0.22-2.12,0.67-2.57
	c0.89-0.56-1.23-3.24-2.12-2.45c-0.89,0.67-2.12,3.79-3.35,3.79c-1.23,0-9.15-2.23-7.92-4.24c1.23-1.9,5.58-4.57,5.8-5.58
	c0.22-1.12-1.23-3.12-2.23-2.45c-1.12,0.67-8.7,6.14-12.16,6.14c-3.57,0-9.15-3.12-5.69-5.47c3.57-2.23,15.73-6.8,15.17-8.37
	c-0.56-1.67-0.67-2.12-2.34-1.45c-1.56,0.67-18.63,6.47-22.32,6.47c-3.68,0-5.58-2.79-5.13-3.79c0.56-1.12,15.17-8.37,23.32-8.48
	c3.79-0.22,3.79-0.89,3.46-2.45c-0.33-1.56-2.45-0.78-4.57-0.22c-2.12,0.56-27.22,3.24-30.57,3.01c-3.35-0.22-2.9-3.35-2.9-3.91
	c0-0.45,14.84-4.24,22.09-5.58c7.14-1.45,16.29-0.33,16.29-0.33s1.23-2.12-0.34-2.9c-1.56-0.67-14.06,0.56-19.86,0.22
	c-5.8-0.33-22.32,0-23.21-1c-0.89-1.12-2.9-4.24-1.45-4.46c1.45-0.11,27.34-3.01,32.92-2.23c5.58,0.67,13.5,1.67,13.5,0.33
	c0-1.45,0.22-1.79-4.69-2.01c-4.91-0.11-19.86-1.9-27.78-3.79c-7.92-2.01-17.07-3.24-17.07-3.24s-2.01-2.46,1.23-2.79
	c3.12-0.33,28.68-0.56,36.37,0.89c7.81,1.45,13.39,3.68,14.06,3.12c0.78-0.45,1.23-1.67-0.45-2.45c-1.79-0.67-22.2-4.57-27.67-6.69
	c-5.47-2.12-23.54-8.37-24.1-10.49c-0.56-2.12,2.12-2.01,5.58-1.12c3.57,0.89,26.78,4.8,33.47,6.92c6.69,2.12,15.62,6.69,17.07,6.36
	c1.45-0.45,3.12-0.78,1.79-1.79c-1.45-1.12-8.81-3.01-23.21-10.38c-14.5-7.36-29.46-16.18-29.46-18.52c0-2.23,4.24-0.67,9.71,1.78
	c5.47,2.45,32.69,14.28,40.28,18.07c7.59,3.9,9.48,4.57,10.04,3.24c0.56-1.45-9.15-3.35-20.75-13.95
	c-11.6-10.49-25.33-26.66-25.33-27.78c0-1,1-2.68,2.79-1c1.79,1.56,29.57,22.31,33.81,25.1c4.24,2.79,14.28,13.16,15.29,12.83
	c1.12-0.33,1.9-1.23,0.67-2.12c-1.23-0.89-10.15-8.37-13.72-13.83c-3.46-5.47-21.65-35.26-20.53-36.82c1-1.56,2.79,1.56,5.8,5.13
	c3.01,3.46,25.55,26.89,27.11,29.23c1.56,2.23,8.59,15.4,9.82,14.73c1.23-0.67-6.47-13.05-10.38-22.54
	c-3.91-9.48-13.05-36.26-11.6-37.6c1.45-1.45,17.96,27.45,22.65,36.59c4.8,9.15,6.58,21.75,8.7,21.42
	c2.12-0.33-3.35-12.83-4.8-22.98c-1.45-10.26-5.8-39.94-4.57-41.06c1.23-1,5.58,7.81,10.6,23.76c4.91,16.07,7.7,24.77,8.26,29.79
	c0.56,4.91,0.34,8.03,1.79,7.92c1.34-0.22-2.34-16.07-1.67-26.66c0.78-10.49,0.89-38.16,3.35-38.71c2.45-0.45,6.92,27.33,8.7,35.81
	c1.67,8.37,2.12,27.89,2.12,29.34c0,1.45,2.23,1.9,2.23,0c0-1.9,1.23-23.54,3.68-37.26c2.46-13.72,5.13-27.44,7.03-27.44
	c2.01,0,2.68,33.25,2.68,41.5c0,8.26-1.79,21.31-1.9,22.87c-0.22,1.56,1.56,1.34,2.01-1.79c0.56-3.12,1.67-14.73,5.13-25.55
	c3.46-10.71,11.83-34.59,12.61-34.47c0.67,0.22,3.12,1.45-1.12,26.55c-4.24,25.21-6.7,32.58-7.37,35.37c-0.67,2.9,1,2.9,1.79,0.56
	c0.67-2.23,4.24-16.51,9.26-24.32c5.13-7.7,18.52-32.13,19.75-32.02c1.23,0.22-0.22,8.81-5.8,23.76
	c-5.69,14.95-6.03,17.96-7.36,21.31c-1.45,3.35-7.81,13.17-8.48,14.95c-0.67,1.78,1.45,1.78,2.45-0.33
	c1.12-2.12,6.03-12.16,13.61-20.42c7.48-8.26,25.44-28.11,27-27.78c1.67,0.33-10.82,20.42-15.29,28.34
	c-4.35,7.92-16.74,21.64-18.86,22.65c-2.01,1.12-0.67,2.9,1.23,2.01c2.01-0.89,9.93-10.93,21.87-18.74
	c11.94-7.7,27.23-19.52,28.45-19.3c1.34,0.22,0.45,3.12-2.01,5.24c-2.57,2.12-20.08,21.64-25.77,27
	c-5.58,5.24-14.95,9.15-16.29,10.15c-1.45,1.12-0.22,1.56,2.12,0.34c2.23-1.23,14.17-7.92,23.88-11.38
	c9.71-3.57,31.35-13.95,32.58-12.83c1.23,1-2.12,3.46-7.36,6.81c-5.36,3.35-22.87,13.61-28.34,16.51
	c-5.47,3.01-16.4,5.69-16.74,6.58c-0.34,0.89-0.56,2.9,2.79,1.56c3.35-1.45,15.62-7.36,26-8.81c10.49-1.45,28.79-5.58,29.46-3.9
	c0.67,1.78-18.19,9.48-31.91,13.39c-13.72,3.9-18.3,4.91-20.42,4.91c-2.01,0-1.34,2.45,1.45,2.01c2.79-0.56,17.07-4.24,25.89-3.68
	c8.81,0.45,23.54-1.78,23.77,0.11c0.11,2.01-14.95,5.69-26.89,7.59c-12.05,1.9-21.2,2.79-21.87,2.79c-0.67,0-1.45,1.78,0.22,1.78
	c1.56,0,9.82-1.23,22.65-0.89c12.83,0.34,23.77,1.56,23.43,3.12c-0.33,1.67-0.78,3.35-4.58,3.24c-3.91-0.22-30.13,3.12-39.94,1.56
	c0,0-2.34,2.12,0.33,2.68c2.68,0.45,15.51-0.78,21.09,0.89c5.69,1.56,16.4,4.13,16.18,5.91c-0.11,1.79,0.22,3.35-8.03,2.68
	c-8.26-0.67-24.66-2.79-26.78-3.24c-2.12-0.33-4.02-0.78-3.91,0.56c0.22,1.45,0.33,2.46,3.57,2.46c3.12,0,7.14,1.12,14.95,4.13
	c7.7,2.9,11.6,4.68,9.26,6.47c-2.23,1.79-3.46,2.12-7.48,1.56c-4.13-0.56-18.86-3.9-20.98-6.47c0,0-2.79,1.34-1,3.79
	c0,0,12.38,3.24,15.62,8.14c0,0-2.12,4.8-7.03,3.35c-4.91-1.45-10.71-3.57-12.5-5.47c-1.79-1.9-2.01,1.45-0.89,2.45
	c1,1.12,5.47,4.24,5.24,6.14c-0.11,2.01-5.02,3.68-6.81,3.57c-1.79-0.22-2.01-2.45-4.8-3.68c-2.79-1.23-2.57,2.45-1.34,3.35
	c1.23,0.89,1.34,1.67,1.34,1.67s-10.49,0.89-17.41,7.14c-6.81,6.14-9.71,3.01-14.5,41.5L367.84,363.06z"/>
<polygon class="st0" points="177.71,194.26 177.71,47.43 518.02,47.43 518.02,192.92 490.57,192.92 490.57,74.54 205.49,74.54 
	205.49,194.26 "/>
<polygon class="st0" points="178.6,263.31 205.71,263.31 205.71,383.7 331.8,383.7 336.26,410.14 178.27,410.14 "/>
<polygon class="st0" points="516.9,263.31 489.79,263.31 489.79,383.7 363.82,383.7 359.36,410.14 517.24,410.14 "/>
<path class="st1" d="M177.26,434.9h31.35v8.14h-20.64v14.62h18.75v8.7h-18.63v24.43h-10.82V434.9z M252.13,432.67v9.04
	c-8.48,0-15.4,9.37-15.4,20.97c0,11.6,6.92,20.97,15.4,20.97v9.04c-14.39,0-26.11-13.5-26.11-30.01
	C226.02,446.06,237.74,432.67,252.13,432.67z M358.02,434.57h30.13v8.14h-19.53v14.39h18.52v9.04h-18.52v16.07h21.09v8.14h-31.69
	V434.57z M328.45,444.61v-9.71c0,0-16.96-4.8-25.33,2.68c-8.37,7.59-6.92,19.41,2.23,24.77c9.15,5.47,18.86,8.7,15.06,16.74
	c-3.79,8.14-17.85,3.24-20.53,0.56l-1.34,9.15c0,0,9.71,8.37,27.56-0.56c7.48-3.79,9.93-22.09-2.79-28
	c-12.61-5.91-19.64-12.94-10.71-17.52C321.42,438.14,328.45,444.61,328.45,444.61z M252.13,492.7v-9.04
	c8.59,0,15.51-9.37,15.51-20.97c0-11.6-6.92-20.97-15.51-20.97v-9.04c14.5,0,26.22,13.39,26.22,30.01
	C278.35,479.2,266.64,492.7,252.13,492.7z M495.03,432.67v9.04c-8.48,0-15.4,9.37-15.4,20.97c0,11.6,6.92,20.97,15.4,20.97v9.04
	c-14.39,0-26.11-13.5-26.11-30.01C468.93,446.06,480.64,432.67,495.03,432.67z M452.3,445.73v-9.71c0,0-35.26-12.05-42.85,17.52
	c-6.14,24.21,12.16,45.18,42.29,36.59c-0.22-5.35,0-10.71,0-10.71s-18.08,9.59-27.22-2.45c-9.15-12.16-4.8-28.34,5.69-32.58
	C440.7,440.04,452.3,445.73,452.3,445.73z M495.03,492.7v-9.04c8.59,0,15.51-9.37,15.51-20.97c0-11.6-6.92-20.97-15.51-20.97v-9.04
	c14.5,0,26.22,13.39,26.22,30.01C521.25,479.2,509.54,492.7,495.03,492.7z"/>
</svg>
