<?xml version="1.0" encoding="UTF-8" standalone="no"?>
<!DOCTYPE svg PUBLIC "-//W3C//DTD SVG 1.1//EN" "http://www.w3.org/Graphics/SVG/1.1/DTD/svg11.dtd">
<svg width="100%" height="100%" viewBox="0 0 2500 880" version="1.1" xmlns="http://www.w3.org/2000/svg" xmlns:xlink="http://www.w3.org/1999/xlink" xml:space="preserve" xmlns:serif="http://www.serif.com/" style="fill-rule:evenodd;clip-rule:evenodd;stroke-linejoin:round;stroke-miterlimit:2;">
    <path d="M2084.97,533.185C2079.03,530.052 2068.86,524.517 2065.06,522.497C2058.94,519.192 2055.07,523.506 2053.38,525.718C2011.8,583.408 1971.23,602.525 1919.9,602.525C1838.23,602.525 1779.92,534.366 1779.92,428.525L2076.62,428.525C2080.08,428.525 2082.9,425.85 2083.05,422.505C2077.7,291.989 2005.73,225.172 1893.25,225.172C1781.53,225.172 1688.24,310.379 1688.24,446.583C1688.24,577.845 1760.71,667.989 1887.38,668.036C1977.25,668.036 2034.24,633.46 2088.2,542.622C2089.38,540.719 2090.89,536.432 2084.97,533.184L2084.97,533.185ZM1889.98,261.244C1937.09,261.244 1982.69,294.105 1986.43,379.599C1986.33,383.095 1983.44,385.885 1979.83,385.885L1781.53,385.885C1789.91,308.82 1828.22,261.244 1889.98,261.244L1889.98,261.244ZM1474.2,225.175C1426.74,225.175 1392.58,245.595 1360.08,271.017C1349.22,279.228 1345.9,284.209 1342.5,284.209C1338.33,284.209 1338.33,138.355 1338.33,106.695C1338.33,104.164 1336.1,100.868 1331.93,101.303C1302.03,104.382 1174.81,119.505 1115.07,161.826C1091.43,178.635 1067.26,202.351 1055.68,230.783C1040.15,226.955 1023.23,224.641 1005.24,224.641C929.561,224.641 863.476,270.197 863.476,349.815C863.476,497.505 1108.58,449.902 1108.58,559.017C1108.58,600.86 1076.89,631.968 1025.15,631.968C961.538,631.968 912.283,583.361 900.891,515.201C900.045,512.553 897.615,510.601 894.605,510.601L864.965,510.601C861.402,510.601 858.488,513.44 858.488,517.031L858.488,651.807C858.488,655.397 861.402,658.237 864.965,658.237L882.326,658.237C895.662,658.237 898.024,648.387 912.588,648.34C935.172,648.387 971.868,668.036 1025.15,668.036C1116.86,668.036 1178.57,612.346 1178.57,532.727C1178.57,370.235 933.539,423.585 933.539,322.734C933.539,285.8 963.514,261.244 1001.91,261.244C1023.97,261.244 1048.19,267.598 1060.51,279.417C1073.92,291.961 1079.68,315.459 1091.96,330.174C1104.34,345.024 1126.39,353.55 1150.94,341.756C1183.33,326.127 1182.41,272.533 1140.54,259.941C1116.11,252.624 1104.19,244.101 1104.19,227.175C1104.19,197.104 1162.79,147.985 1235.17,147.985C1254.38,147.985 1253.34,166.883 1253.34,166.883L1253.34,778.019C1253.34,821.643 1236.8,840.036 1196.55,843.216C1192.93,843.216 1190.05,846.179 1190.05,849.721L1190.05,873.314C1190.05,876.898 1192.93,879.695 1196.57,879.695L1416.87,879.695C1420.45,879.695 1423.4,876.898 1423.4,873.362L1423.4,849.721C1423.4,846.636 1421.37,844.226 1418.51,843.482C1355.76,841.025 1338.45,822.776 1338.45,778.019L1338.45,641.817C1372.57,659.923 1396.74,668.037 1433.39,668.037C1548.42,668.037 1635.99,573.801 1635.99,432.69C1635.99,294.031 1573.44,225.175 1474.19,225.175L1474.2,225.175ZM1425.04,631.97C1368.4,631.97 1338.46,596.795 1338.46,554.008L1338.46,335.033C1368.4,303.858 1398.43,285.8 1436.71,285.8C1501.74,285.8 1547.58,349.815 1547.58,458.065C1547.58,559.864 1500.1,631.97 1425.04,631.97ZM798.375,622.024C765.288,620.966 747.332,609.385 747.332,556.513L747.332,339.975C747.332,271.065 703.127,225.175 624.11,225.175C576.554,225.175 540.587,247.3 506.491,278.504C493.08,290.762 490.602,294.038 488.145,294.038C486.459,294.038 485.667,294.038 485.667,291.553L485.667,225.175L352.113,248.502L350.018,248.939C347.493,249.806 345.616,252.262 345.616,254.979L345.616,276.723C345.616,280.285 348.482,283.078 352.113,283.153L352.113,283.419C387.288,289.029 400.556,309.688 400.556,351.387L400.556,556.513C400.556,609.385 382.62,620.966 349.588,622.024C346.408,622.482 343.902,625.158 343.902,628.406L343.95,651.809C343.95,655.398 346.816,658.238 350.407,658.238L535.769,658.238C539.38,658.238 542.321,655.398 542.321,651.809L542.321,628.406C542.321,625.158 539.837,622.482 536.636,622.024C503.528,620.966 485.667,609.385 485.667,556.513L485.667,351.387C508.156,320.278 545.665,285.801 592.345,285.801C636.483,285.801 662.293,315.393 662.293,367.876L662.293,556.513C662.293,609.385 644.406,620.966 611.367,622.024C608.07,622.482 605.736,625.158 605.736,628.406L605.64,651.809C605.64,655.398 608.65,658.238 612.213,658.238L797.575,658.238C801.166,658.238 804.052,655.398 804.052,651.809L804.052,628.406C804.052,625.158 801.547,622.482 798.374,622.024L798.375,622.024ZM283.524,0.305L6.47,0.305C2.908,0.305 -0,3.239 -0,6.782L-0,30.205C-0,33.794 2.908,36.633 6.47,36.633C79.332,39.186 96.715,57.435 96.715,102.022L96.715,556.514C96.715,601.156 79.332,619.453 6.47,621.979C2.908,621.979 -0,624.872 -0,628.407L-0,651.81C-0,655.399 2.908,658.24 6.423,658.24L283.524,658.24C287.135,658.24 290.07,655.399 290.07,651.81L290.07,628.407C290.07,624.872 287.135,621.979 283.524,621.979C210.642,619.453 193.403,601.156 193.307,556.514L193.403,102.022C193.403,57.435 210.642,39.186 283.524,36.633C287.135,36.633 290.07,33.794 290.07,30.205L290.07,6.782C290.07,3.239 287.135,0.305 283.524,0.305ZM2496.65,295.382C2486.97,264.034 2458.59,225.202 2407.74,225.202C2358.58,225.202 2322.73,253.806 2298.48,290.762C2275.23,326.031 2277.72,330.098 2271.78,330.098C2266.87,330.098 2266.03,326.851 2266.03,321.144L2266.03,232.347C2266.03,228.859 2263.09,225.965 2259.43,225.965L2125.97,242.583C2123.16,243.204 2121.01,245.784 2121.01,248.767L2121.01,270.292C2121.01,273.33 2123.2,275.882 2126.07,276.531C2126.43,276.531 2126.74,276.551 2127.03,276.551C2127.17,276.646 2127.37,276.722 2127.47,276.722C2174.73,282.161 2189.31,296.534 2189.31,334.29L2189.31,556.512C2189.31,610.156 2170.9,621.327 2129.66,622.071C2126.6,622.678 2124.31,625.299 2124.31,628.404L2124.31,651.807C2124.31,655.418 2127.2,658.237 2130.81,658.237L2352.87,658.237C2356.41,658.237 2359.4,655.418 2359.4,651.807L2359.4,628.404C2359.4,625.348 2357.13,622.775 2354.2,622.125C2291.64,621.45 2274.38,607.678 2274.38,556.512L2274.38,439.24C2274.38,349.843 2327.69,285.827 2365.22,285.827C2384.43,285.827 2402.85,299.524 2405.07,327.403C2407.37,348.662 2428.3,366.646 2451.7,366.646C2456.35,366.646 2460.78,365.97 2464.99,364.721C2485.99,357.404 2496.29,340.499 2498.99,319.964C2500,312.354 2499.4,304.124 2496.65,295.381L2496.65,295.382Z" style="fill:rgb(22,25,88);fill-rule:nonzero;"/>
</svg>
