<?xml version="1.0" encoding="utf-8"?>
<!-- Generator: Adobe Illustrator 25.0.0, SVG Export Plug-In . SVG Version: 6.00 Build 0)  -->
<svg version="1.1" id="Camada_1" xmlns="http://www.w3.org/2000/svg" xmlns:xlink="http://www.w3.org/1999/xlink" x="0px" y="0px"
	 viewBox="0 0 240 73" style="enable-background:new 0 0 240 73;" xml:space="preserve">
<style type="text/css">
	.st0{fill:#237FDB;}
</style>
<g>
	<path class="st0" d="M175.07,55.04h-7.63c-3,0-4.55-0.48-5.18-1.6c-0.59-1.04-0.29-2.55,0.95-4.74l0.09-0.16h7.84l-0.27,0.47
		c-0.18,0.33-0.25,0.59-0.17,0.73c0.08,0.15,0.37,0.23,0.78,0.23h5c3.11,0,4.96-1.12,6.58-4.01l4.53-8.16
		c0.82-1.46,1.08-2.3,0.83-2.74c-0.24-0.43-1.07-0.62-2.62-0.62h-3.38c-3.17,0-4.48,0.78-6.11,3.68c-0.79,1.42-1.05,2.25-0.81,2.67
		c0.24,0.42,1.08,0.62,2.64,0.62h4.1l-3.19,5.63l-0.16,0.01c-0.62,0.06-1.33,0.09-2.15,0.09h-3.63c-3.29,0-5.18-0.64-5.94-1.99
		c-0.76-1.35-0.34-3.35,1.33-6.31l1.45-2.58c3.52-6.26,7.68-7.54,12.85-7.54h4.03c3.22,0,4.16,0.4,4.6,2.39l1.18-2.09h7.2
		L189.6,47.13C187.4,51.04,183.96,55.04,175.07,55.04 M130.75,48.76h-7.53l3.37-5.97l0.19,0.01c0.21,0.01,0.43,0.01,0.66,0.01h1.66
		c4.51,0,5.5-0.63,6.8-2.94l1.46-2.58c0.59-1.04,0.76-1.64,0.59-1.96c-0.33-0.59-2.16-0.67-3.9-0.67h-1.66
		c-3.31,0-5.05,0.91-6.43,3.35l-6.09,10.75l-0.19-0.01c-2.11-0.11-3.5-0.75-4.1-1.9c-0.72-1.35-0.33-3.37,1.16-6.01l2.54-4.5
		c2.85-5.05,6.91-7.61,12.07-7.61h10.33c2.49,0,4.1,0.62,4.8,1.86c0.76,1.35,0.38,3.39-1.12,6.07l-2.54,4.51
		C139.96,46.2,135.9,48.76,130.75,48.76 M102.74,48.47h-26l3.97-7.06h22.5c1.9,0,3-0.54,3.71-1.8c0.35-0.62,0.46-1.08,0.33-1.32
		c-0.16-0.28-0.73-0.42-1.69-0.42H82.71l9.44-16.77h23.19c3.89,0,5.99,0.64,6.79,2.08c0.69,1.22,0.36,2.99-1,5.41
		c-2.32,4.11-4.3,5.32-6.51,6c0.83,0.26,1.37,0.69,1.66,1.28c0.54,1.12,0.13,2.77-1.32,5.34C111.36,47.61,106.76,48.47,102.74,48.47
		 M148.14,48.47h-7.63l10.96-19.46h7.2l-1.26,2.23c2.02-1.68,4.6-2.52,7.69-2.52c2.47,0,3.92,0.52,4.55,1.62
		c0.71,1.27,0.26,3.26-1.44,6.27c-0.21,0.38-0.45,0.78-0.75,1.26l-0.35,0.57h-6.68l0.27-0.47c0.52-0.93,1.08-2.06,0.8-2.56
		c-0.19-0.33-0.81-0.51-1.86-0.51c-1.76,0-4.15,0.52-5.55,3.02L148.14,48.47L148.14,48.47z M226.19,48.46h-7.63L229.52,29h7.62
		L226.19,48.46L226.19,48.46z M216.45,48.46h-7.63l6.36-11.29c0.37-0.66,0.46-1.17,0.27-1.5c-0.21-0.36-0.87-0.79-2.91-0.79h-1.59
		c-2.93,0-5.33,1.4-6.76,3.94l-5.43,9.64h-7.63l15.41-27.36h7.63l-5.61,9.96c2.19-1.66,4.68-2.35,8.21-2.35c2.37,0,5.95,0,7.15,2.12
		c0.82,1.47,0.4,3.64-1.3,6.66L216.45,48.46L216.45,48.46z M94.89,31.7h13.62c1.49,0,2.5-0.59,3.24-1.91
		c0.33-0.6,0.45-1.06,0.32-1.29c-0.12-0.23-0.54-0.34-1.2-0.34H96.89L94.89,31.7z"/>
</g>
<g>
	<path class="st0" d="M64.32,69.9c5.9-0.23,10.62-5.06,10.62-10.98c0-2.29-0.71-4.42-1.92-6.18l-11.9-20.45
		c-2.2,2.88-9.3,3.91-8.33,3.86c1.71,0.16,5.61,0.68,6.29,2.77c0.64,1.99-0.08,4.04-2.55,8.29c-6.09,10.48-17.37,11.71-24.18,11.71
		H9.82l5.95-10.2H35.9c4.27,0,6.54-1.83,7.72-3.87c0.55-0.96,0.59-1.56,0.55-2.02c-0.05-0.54-0.52-1.68-3.18-1.66l-21.01-0.01
		L25.92,31h19.96c3.02,0,5.04-1.16,6.55-3.75c0.94-1.61-0.12-2.43-0.52-2.62c-0.24-0.11-0.79-0.4-2.54-0.4H29.79l5.98-10.24h14.7
		c-1.39-2.39-2.44-4.39-3.45-6.09c-1.61-2.72-4.77-4.8-8.17-4.8c-3.44,0-6.28,1.78-7.92,4.76L4.22,53.89
		c-0.87,1.55-1.37,3.34-1.37,5.24c0,5.92,4.8,10.72,10.73,10.78C13.58,69.91,64.32,69.9,64.32,69.9z"/>
</g>
</svg>
